<?xml version="1.0" encoding="UTF-8"?>
<svg width="32px" height="22px" viewBox="0 0 32 22" version="1.1" xmlns="http://www.w3.org/2000/svg" xmlns:xlink="http://www.w3.org/1999/xlink">
    <!-- Generator: Sketch 58 (84663) - https://sketch.com -->
    <title>drawer</title>
    <desc>Created with Sketch.</desc>
    <g id="Arc_surf" stroke="none" stroke-width="1" fill="none" fill-rule="evenodd">
        <g id="Contact-Page" transform="translate(-62.000000, -726.000000)" fill="#FFFFFF" fill-rule="nonzero">
            <g id="Group-2" transform="translate(-1.000000, 76.000000)">
                <g id="drawer" transform="translate(63.000000, 650.000000)">
                    <path d="M31.781,10.375 L23.781,0.375 C23.591,0.138 23.304,0 23,0 L9,0 C8.696,0 8.409,0.138 8.219,0.375 L0.219,10.375 C0.077,10.552 0,10.773 0,11 L0,20 C0,21.105 0.895,22 2,22 L30,22 C31.105,22 32,21.105 32,20 L32,11 C32,10.773 31.923,10.553 31.781,10.375 Z M30,11.4285714 L23,11.4285714 L19,16 L13,16 L9,11.4285714 L2,11.4285714 L2,10.6868571 L9.481,0 L22.52,0 L30.001,10.6868571 L30.001,11.4285714 L30,11.4285714 Z" id="Shape"></path>
                    <path d="M23,6 L9,6 C8.448,6 8,5.552 8,5 C8,4.448 8.448,4 9,4 L23,4 C23.552,4 24,4.448 24,5 C24,5.552 23.552,6 23,6 Z" id="Path"></path>
                    <path d="M25,10 L7,10 C6.448,10 6,9.552 6,9 C6,8.448 6.448,8 7,8 C12.0553687,8 15.8468952,8 18.3745796,8 C19.8468952,8 22.0553687,8 25,8 C25.552,8 26,8.448 26,9 C26,9.552 25.552,10 25,10 Z" id="Path"></path>
                </g>
            </g>
        </g>
    </g>
</svg>