<?xml version="1.0" encoding="UTF-8"?>
<svg width="21px" height="29px" viewBox="0 0 21 29" version="1.1" xmlns="http://www.w3.org/2000/svg" xmlns:xlink="http://www.w3.org/1999/xlink">
    <!-- Generator: Sketch 58 (84663) - https://sketch.com -->
    <title>location2</title>
    <desc>Created with Sketch.</desc>
    <g id="Arc_surf" stroke="none" stroke-width="1" fill="none" fill-rule="evenodd">
        <g id="Contact-Page" transform="translate(-62.000000, -336.000000)" fill="#FFFFFF" fill-rule="nonzero">
            <g id="Group-2" transform="translate(-1.000000, 76.000000)">
                <g id="location2" transform="translate(63.000000, 260.000000)">
                    <path d="M10.5,0 C4.70085,0 0,4.05728125 0,9.0625 C0,18.125 10.5,29 10.5,29 C10.5,29 21,18.125 21,9.0625 C21,4.05728125 16.29915,0 10.5,0 Z M10.5,14.5 C7.02034286,14.5 4.2,11.9599397 4.2,8.82608696 C4.2,5.69223425 7.02034286,3.15217391 10.5,3.15217391 C13.9796571,3.15217391 16.8,5.69223425 16.8,8.82608696 C16.8,11.9599397 13.9796571,14.5 10.5,14.5 Z M6.3,9.14130435 C6.3,7.22640954 8.18051613,5.67391304 10.5,5.67391304 C12.8194839,5.67391304 14.7,7.22640954 14.7,9.14130435 C14.7,11.0561992 12.8194839,12.6086957 10.5,12.6086957 C8.18051613,12.6086957 6.3,11.0561992 6.3,9.14130435 Z" id="Shape"></path>
                </g>
            </g>
        </g>
    </g>
</svg>