<?xml version="1.0" encoding="UTF-8"?>
<svg width="30px" height="30px" viewBox="0 0 30 30" version="1.1" xmlns="http://www.w3.org/2000/svg" xmlns:xlink="http://www.w3.org/1999/xlink">
    <!-- Generator: Sketch 58 (84663) - https://sketch.com -->
    <title>phone</title>
    <desc>Created with Sketch.</desc>
    <g id="Arc_surf" stroke="none" stroke-width="1" fill="none" fill-rule="evenodd">
        <g id="Contact-Page" transform="translate(-57.000000, -493.000000)" fill="#FFFFFF" fill-rule="nonzero">
            <g id="Group-2" transform="translate(-1.000000, 76.000000)">
                <g id="phone" transform="translate(58.000000, 417.000000)">
                    <path d="M22,18 C20,20 20,22 18,22 C16,22 14,20 12,18 C10,16 8,14 8,12 C8,10 10,10 12,8 C14,6 8,0 6,0 C4,0 0,6 0,6 C0,10 4.109,18.109 8,22 C11.891,25.891 20,30 24,30 C24,30 30,26 30,24 C30,22 24,16 22,18 Z" id="Path"></path>
                </g>
            </g>
        </g>
    </g>
</svg>